<?xml version="1.0" encoding="UTF-8" standalone="no" ?>
<!DOCTYPE svg PUBLIC "-//W3C//DTD SVG 1.1//EN" "http://www.w3.org/Graphics/SVG/1.1/DTD/svg11.dtd">
<svg xmlns="http://www.w3.org/2000/svg" xmlns:xlink="http://www.w3.org/1999/xlink" version="1.1" width="1080" height="1080" viewBox="0 0 1080 1080" xml:space="preserve">
<desc>Created with Fabric.js 5.2.4</desc>
<defs>
</defs>
<g transform="matrix(1 0 0 1 540 540)" id="e72f658f-8159-4cb3-b034-67cd7b845c96"  >
<rect style="stroke: none; stroke-width: 1; stroke-dasharray: none; stroke-linecap: butt; stroke-dashoffset: 0; stroke-linejoin: miter; stroke-miterlimit: 4; fill: rgb(255,255,255); fill-rule: nonzero; opacity: 1; visibility: hidden;" vector-effect="non-scaling-stroke"  x="-540" y="-540" rx="0" ry="0" width="1080" height="1080" />
</g>
<g transform="matrix(1 0 0 1 540 540)" id="7fcf83e5-e9d8-45de-88d2-5016c3e57bb3"  >
</g>
<g transform="matrix(1 0 0 1 540 540)"  >
<g style="opacity: 0.39;" vector-effect="non-scaling-stroke"   >
		<g transform="matrix(1 0 0 1 101.13 101.13)"  >
<polygon style="stroke: none; stroke-width: 1; stroke-dasharray: none; stroke-linecap: butt; stroke-dashoffset: 0; stroke-linejoin: miter; stroke-miterlimit: 4; fill: rgb(117,63,4); fill-rule: nonzero; opacity: 1;" vector-effect="non-scaling-stroke"  points="-154.87,154.87 -17.03,154.87 154.87,-17.03 154.87,-154.87 " />
</g>
		<g transform="matrix(1 0 0 1 -183.94 -52.79)"  >
<polygon style="stroke: none; stroke-width: 1; stroke-dasharray: none; stroke-linecap: butt; stroke-dashoffset: 0; stroke-linejoin: miter; stroke-miterlimit: 4; fill: rgb(117,63,4); fill-rule: nonzero; opacity: 1;" vector-effect="non-scaling-stroke"  points="3.15,-106.52 -72.06,-31.31 -72.06,106.52 72.06,-37.6 " />
</g>
		<g transform="matrix(1 0 0 1 -82.8 138.74)"  >
<polygon style="stroke: none; stroke-width: 1; stroke-dasharray: none; stroke-linecap: butt; stroke-dashoffset: 0; stroke-linejoin: miter; stroke-miterlimit: 4; fill: rgb(117,63,4); fill-rule: nonzero; opacity: 1;" vector-effect="non-scaling-stroke"  points="82.8,-117.26 -151.72,117.26 -13.88,117.26 151.72,-48.34 " />
</g>
		<g transform="matrix(1 0 0 1 180.79 229.13)"  >
<polygon style="stroke: none; stroke-width: 1; stroke-dasharray: none; stroke-linecap: butt; stroke-dashoffset: 0; stroke-linejoin: miter; stroke-miterlimit: 4; fill: rgb(117,63,4); fill-rule: nonzero; opacity: 1;" vector-effect="non-scaling-stroke"  points="0,-26.87 -53.73,26.87 53.73,26.87 " />
</g>
		<g transform="matrix(1 0 0 1 229.13 180.79)"  >
<polygon style="stroke: none; stroke-width: 1; stroke-dasharray: none; stroke-linecap: butt; stroke-dashoffset: 0; stroke-linejoin: miter; stroke-miterlimit: 4; fill: rgb(117,63,4); fill-rule: nonzero; opacity: 1;" vector-effect="non-scaling-stroke"  points="-26.87,0 26.87,53.73 26.87,-53.73 " />
</g>
		<g transform="matrix(1 0 0 1 -52.79 -183.94)"  >
<polygon style="stroke: none; stroke-width: 1; stroke-dasharray: none; stroke-linecap: butt; stroke-dashoffset: 0; stroke-linejoin: miter; stroke-miterlimit: 4; fill: rgb(117,63,4); fill-rule: nonzero; opacity: 1;" vector-effect="non-scaling-stroke"  points="-31.31,-72.06 -106.52,3.15 -37.6,72.06 106.52,-72.06 " />
</g>
		<g transform="matrix(1 0 0 1 -229.13 180.79)"  >
<polygon style="stroke: none; stroke-width: 1; stroke-dasharray: none; stroke-linecap: butt; stroke-dashoffset: 0; stroke-linejoin: miter; stroke-miterlimit: 4; fill: rgb(117,63,4); fill-rule: nonzero; opacity: 1;" vector-effect="non-scaling-stroke"  points="-26.87,-53.73 -26.87,53.73 26.87,0 " />
</g>
		<g transform="matrix(1 0 0 1 138.74 -82.8)"  >
<polygon style="stroke: none; stroke-width: 1; stroke-dasharray: none; stroke-linecap: butt; stroke-dashoffset: 0; stroke-linejoin: miter; stroke-miterlimit: 4; fill: rgb(117,63,4); fill-rule: nonzero; opacity: 1;" vector-effect="non-scaling-stroke"  points="-117.26,82.8 -48.34,151.72 117.26,-13.88 117.26,-151.72 " />
</g>
		<g transform="matrix(1 0 0 1 -191.53 -191.53)"  >
<polygon style="stroke: none; stroke-width: 1; stroke-dasharray: none; stroke-linecap: butt; stroke-dashoffset: 0; stroke-linejoin: miter; stroke-miterlimit: 4; fill: rgb(117,63,4); fill-rule: nonzero; opacity: 1;" vector-effect="non-scaling-stroke"  points="-64.47,-64.47 -64.47,64.47 64.47,-64.47 " />
</g>
		<g transform="matrix(1 0 0 1 180.79 -229.13)"  >
<polygon style="stroke: none; stroke-width: 1; stroke-dasharray: none; stroke-linecap: butt; stroke-dashoffset: 0; stroke-linejoin: miter; stroke-miterlimit: 4; fill: rgb(117,63,4); fill-rule: nonzero; opacity: 1;" vector-effect="non-scaling-stroke"  points="-53.73,-26.87 0,26.87 53.73,-26.87 " />
</g>
		<g transform="matrix(0.71 -0.71 0.71 0.71 -45.21 -45.2)"  >
<rect style="stroke: none; stroke-width: 1; stroke-dasharray: none; stroke-linecap: butt; stroke-dashoffset: 0; stroke-linejoin: miter; stroke-miterlimit: 4; fill: rgb(117,63,4); fill-rule: nonzero; opacity: 1;" vector-effect="non-scaling-stroke"  x="-240.4895" y="-48.7325" rx="0" ry="0" width="480.979" height="97.465" />
</g>
</g>
</g>
</svg>