<svg xmlns="http://www.w3.org/2000/svg" width="24" height="24" viewBox="0 0 24 24">
  <!-- Transparent background (no <rect> element) -->
  <g fill="#007bff">
    <!-- First row -->
    <circle cx="2" cy="2" r="2" />
    <circle cx="6" cy="2" r="2" />
    <circle cx="10" cy="2" r="2" />
    <circle cx="14" cy="2" r="2" />
    <circle cx="18" cy="2" r="2" />
    <circle cx="22" cy="2" r="2" />
    <!-- Second row -->
    <circle cx="2" cy="6" r="2" />
    <circle cx="6" cy="6" r="2" />
    <circle cx="10" cy="6" r="2" />
    <circle cx="14" cy="6" r="2" />
    <circle cx="18" cy="6" r="2" />
    <circle cx="22" cy="6" r="2" />
    <!-- Third row -->
    <circle cx="2" cy="10" r="2" />
    <circle cx="6" cy="10" r="2" />
    <circle cx="10" cy="10" r="2" />
    <circle cx="14" cy="10" r="2" />
    <circle cx="18" cy="10" r="2" />
    <circle cx="22" cy="10" r="2" />
    <!-- Fourth row -->
    <circle cx="2" cy="14" r="2" />
    <circle cx="6" cy="14" r="2" />
    <circle cx="10" cy="14" r="2" />
    <circle cx="14" cy="14" r="2" />
    <circle cx="18" cy="14" r="2" />
    <circle cx="22" cy="14" r="2" />
    <!-- Fifth row -->
    <circle cx="2" cy="18" r="2" />
    <circle cx="6" cy="18" r="2" />
    <circle cx="10" cy="18" r="2" />
    <circle cx="14" cy="18" r="2" />
    <circle cx="18" cy="18" r="2" />
    <circle cx="22" cy="18" r="2" />
    <!-- Sixth row -->
    <circle cx="2" cy="22" r="2" />
    <circle cx="6" cy="22" r="2" />
    <circle cx="10" cy="22" r="2" />
    <circle cx="14" cy="22" r="2" />
    <circle cx="18" cy="22" r="2" />
    <circle cx="22" cy="22" r="2" />
  </g>
</svg>
